<?xml version="1.0" encoding="UTF-8"?>
<svg id="Layer_2" data-name="Layer 2" xmlns="http://www.w3.org/2000/svg" viewBox="0 0 328.46 168.01">
  <defs>
    <style>
      .cls-1 {
        fill: #fff;
      }

      .cls-2 {
        stroke: #fff;
        stroke-miterlimit: 10;
        stroke-width: 2px;
      }

      .cls-2, .cls-3 {
        fill: #1b1464;
      }
    </style>
  </defs>
  <g id="Layer_4" data-name="Layer 4">
    <g>
      <path class="cls-1" d="M96.33,7.66c-23.09-4.24-45.24,11.03-49.49,34.12s11.03,45.24,34.12,49.49c23.09,4.24,45.24-11.03,49.49-34.12,4.24-23.09-11.03-45.24-34.12-49.49Zm-27.96,75.17c-3.9-2.33-12.14-7.25-16.44-17.32-6.66-15.6,1.61-30.69,2.99-33.2,2.71-4.94,5.93-8.38,8.15-10.44-.9,1.3-13.26,19.85-4.47,41.23,8.76,21.31,30.48,25.84,32.06,26.14-4.34-.12-13.15-.94-22.29-6.41Z"/>
      <g>
        <path class="cls-1" d="M138.02,7.42s.03,.04,.04,.05c.04,.04,.05,.04-.04-.05Z"/>
        <path class="cls-1" d="M134.26,.22c-7.31-1.34-14.33,3.49-15.67,10.8s3.49,14.33,10.8,15.67,14.33-3.49,15.67-10.8c1.34-7.31-3.49-14.33-10.8-15.67Zm7.19,11.4c-.36,.76-1.26,1.02-2,.7-.75-.32-1.04-1.3-.7-2,.03-.07,.06-.15,.1-.22,.03-.16,.07-.31,.09-.47,0-.05,0-.11,0-.16,0-.16-.03-.31-.05-.47,0,0,0,0,0,0-.02-.06-.03-.11-.05-.17-.05-.16-.11-.31-.18-.46-.03-.05-.08-.16-.1-.18-.08-.13-.17-.26-.26-.39-.07-.1-.16-.2-.24-.3-.02-.02-.03-.04-.05-.07-.05-.05-.11-.11-.16-.16-.23-.22-.47-.43-.72-.62-.14-.11-.29-.21-.44-.32-.07-.04-.14-.09-.21-.13-.32-.19-.65-.35-.99-.48-.78-.31-1-1.3-.7-2,.34-.78,1.28-.98,2-.7,3.24,1.28,6.38,5.02,4.65,8.62Z"/>
        <path class="cls-1" d="M138.02,7.42s-.03-.03-.04-.05c0,.01,.02,.02,.03,.04,0,0,0,0,0,0,0,0,0,0,0,0Z"/>
      </g>
      <path class="cls-1" d="M139.61,28.85c-3.66-.67-7.16,1.75-7.84,5.4s1.75,7.16,5.4,7.84,7.16-1.75,7.84-5.4-1.75-7.16-5.4-7.84Zm2.17,7.81c-.56-.24-.78-.97-.52-1.5,0-.01,0-.02,.01-.03,.01-.05,.02-.11,.03-.16,0-.07,0-.15-.02-.22-.03-.09-.06-.17-.09-.25-.08-.13-.16-.25-.26-.37-.17-.17-.35-.32-.54-.45-.19-.12-.38-.23-.59-.31-.27-.11-.46-.37-.57-.63-.12-.28-.07-.6,.05-.87,.11-.25,.38-.48,.63-.57,.29-.11,.59-.07,.87,.05,.46,.18,.88,.46,1.26,.76,.35,.28,.67,.61,.92,.98,.61,.9,.79,2.07,.31,3.07-.27,.57-.94,.76-1.5,.52Z"/>
    </g>
    <g>
      <g>
        <g>
          <path class="cls-1" d="M34.38,161.51c-1.48,0-2.94-.51-4.11-1.47-1.67-1.37-2.55-3.47-2.36-5.62l3.6-39.53c-3.48,1-6.51,1.48-9.25,1.48-2.32,0-4.44-.36-6.31-1.07-3.48-1.32-7.9-4.59-9.18-12.68-1.04-6.63,1.01-13.78,6.09-21.24,4.55-6.68,10.77-12.83,18.49-18.28,7.65-5.41,15.69-9.32,23.87-11.61,5.84-1.64,11.21-2.47,15.97-2.47,1.79,0,3.53,.12,5.17,.35,6.48,.91,11.71,3.26,15.54,6.97,3.85,3.74,6.24,8.44,7.11,13.96,.97,6.17-.03,12.74-2.97,19.51-2.84,6.54-7.42,12.58-13.63,17.96-5.33,4.62-11.67,8.23-18.88,10.77l-2.81,31.1c-.24,2.65-2.06,4.88-4.61,5.64l-19.87,5.95c-.61,.18-1.24,.27-1.86,.27Zm-.52-72.44c-1.06,3.13-1.36,6.49-.92,10.13l.92-10.13Zm31.83,5.5c1.88-2.75,3.3-5.75,4.22-8.97,1.14-3.94,1.46-7.55,.96-10.72-.54-3.44-1.91-4.81-2.95-5.52l-2.24,25.21Z"/>
          <path class="cls-3" d="M71.18,55.52c1.5,0,2.92,.09,4.27,.28,5.12,.72,9.09,2.45,11.92,5.2,2.83,2.75,4.57,6.18,5.21,10.3,.78,4.96-.06,10.26-2.51,15.92-2.46,5.66-6.42,10.87-11.92,15.63-5.51,4.77-12.18,8.3-20.02,10.59l-.69,.2-3.2,35.4-19.87,5.95,7.22-79.19,19.95-8.05-3.67,41.29c4.33-1.58,8.11-4.37,11.34-8.36,3.22-3.98,5.53-8.41,6.95-13.31,1.41-4.89,1.79-9.4,1.14-13.53-.72-4.59-2.72-7.95-5.98-10.06-1.87-1.21-4.13-1.82-6.78-1.82-1.98,0-4.18,.34-6.6,1.02-11.16,3.14-19.52,8.07-25.05,14.79-5.55,6.74-7.63,14.57-6.23,23.47,.45,2.86,1.09,4.77,1.91,5.7,.82,.94,1.25,1.48,1.27,1.63-2.91,.84-5.44,1.26-7.59,1.26-1.53,0-2.87-.22-4.01-.65-2.74-1.04-4.42-3.57-5.06-7.61-.78-4.97,.9-10.49,5.04-16.57,4.13-6.06,9.76-11.61,16.87-16.64,7.09-5.01,14.38-8.56,21.87-10.66,5.3-1.48,10.04-2.22,14.21-2.22m0-13c-5.34,0-11.31,.91-17.72,2.71-8.9,2.49-17.61,6.72-25.87,12.56-8.35,5.9-15.12,12.61-20.11,19.93C1.44,86.6-.96,95.32,.35,103.63c1.85,11.77,9.13,16.17,13.3,17.75,2.61,.99,5.5,1.49,8.61,1.49,.66,0,1.33-.02,2-.07l-2.83,31.02c-.39,4.3,1.38,8.51,4.72,11.24,2.35,1.92,5.27,2.94,8.23,2.94,1.25,0,2.5-.18,3.73-.55l19.87-5.95c5.09-1.52,8.74-5.99,9.22-11.28l2.45-27.08c6.37-2.67,12.08-6.18,17.03-10.47,6.95-6.02,12.11-12.84,15.33-20.28,3.44-7.92,4.59-15.7,3.42-23.11-1.09-6.94-4.12-12.87-9-17.61-4.85-4.7-11.3-7.65-19.17-8.75-1.94-.27-3.99-.41-6.08-.41h0Z"/>
        </g>
        <g>
          <path class="cls-1" d="M99.24,139.06c-3,0-5.79-.64-8.31-1.89-3.43-1.71-7.79-5.51-9.12-13.93-.38-2.42-.43-5.45-.15-9.25l3.39-39.47c.23-2.69,2.1-4.95,4.69-5.69l19.29-5.52c.59-.17,1.19-.25,1.79-.25,1.49,0,2.95,.51,4.13,1.48,1.65,1.36,2.53,3.44,2.35,5.57l-3.38,39.79c.39-.36,.77-.79,1.15-1.28,1.27-1.66,2.05-3.52,2.39-5.7,.39-2.48,2.18-4.51,4.58-5.22l5.57-1.64c.6-.18,1.22-.27,1.84-.27,1.62,0,3.21,.61,4.43,1.74,1.68,1.56,2.41,3.9,1.93,6.14-2.26,10.4-6.25,18.38-11.87,23.72-5.42,5.15-11.24,8.69-17.28,10.5-2.58,.77-5.07,1.16-7.4,1.16Z"/>
          <path class="cls-3" d="M110.82,69.56l-3.53,41.54c-.18,1.25-.16,2.52,.04,3.81,.24,1.52,.83,2.48,1.78,2.87,.38,.16,.85,.24,1.4,.24,.81,0,1.79-.17,2.96-.52,2.58-.77,4.83-2.41,6.76-4.92,1.92-2.51,3.14-5.39,3.65-8.63l5.57-1.64c-1.99,9.14-5.32,15.94-10,20.39-4.69,4.46-9.58,7.46-14.67,8.98-1.98,.59-3.83,.89-5.54,.89-1.99,0-3.79-.4-5.41-1.21-3.01-1.5-4.87-4.54-5.59-9.12-.3-1.91-.33-4.5-.09-7.76l3.39-39.39,19.29-5.52m0-13c-1.2,0-2.4,.17-3.58,.5l-19.29,5.52c-5.18,1.48-8.91,6.01-9.37,11.38l-3.39,39.39c0,.06,0,.11-.01,.17-.31,4.3-.24,7.81,.21,10.73,1.75,11.16,7.84,16.35,12.64,18.74,3.42,1.7,7.19,2.57,11.2,2.57,2.97,0,6.08-.48,9.27-1.44,7.03-2.11,13.73-6.15,19.9-12.01,6.58-6.25,11.2-15.36,13.75-27.05,.97-4.49-.49-9.15-3.85-12.28-2.44-2.27-5.61-3.48-8.85-3.48-1.23,0-2.46,.17-3.67,.53l-3.72,1.1,1.72-20.26c.36-4.26-1.39-8.43-4.7-11.14-2.36-1.94-5.28-2.96-8.26-2.96h0Z"/>
        </g>
        <g>
          <path class="cls-1" d="M119.41,132.73c-1.47,0-2.92-.5-4.1-1.45-1.67-1.36-2.56-3.45-2.38-5.59l5.15-60.92c.23-2.69,2.09-4.96,4.69-5.7l18.99-5.44c.59-.17,1.19-.25,1.79-.25,.83,0,1.64,.16,2.41,.46,2.9-2.08,6.1-3.63,9.61-4.64,2.72-.78,5.31-1.17,7.7-1.17,2.85,0,5.49,.55,7.86,1.64,3.45,1.59,7.82,5.19,9.09,13.32,.41,2.63,.51,5.64,.29,8.94-.2,2.97-.56,6.52-1.11,10.86-.31,2.4-.58,4.77-.79,7.07,.64-1.14,1.53-3.15,2.46-6.64,.58-2.19,2.27-3.92,4.44-4.56l5.41-1.59c.6-.18,1.22-.26,1.84-.26,1.61,0,3.19,.6,4.4,1.72,1.68,1.55,2.43,3.86,1.96,6.1-2.15,10.42-5.43,17.91-10.02,22.89-4.53,4.91-9.67,8.25-15.28,9.93-3.19,.96-6.03,1.42-8.68,1.42-3.31,0-6.25-.75-8.74-2.23-4.53-2.69-7.39-7.03-8.26-12.55-.32-2.04-.41-4.37-.25-6.94,.13-2.18,.29-4.34,.48-6.42,.23-2.52,.35-3.55,.44-4.12,.27-2.7,.51-5.4,.71-8.03,.03-.34,.05-.66,.06-.96-.62,1.38-1.09,2.98-1.41,4.79l-3.23,38.7c-.22,2.66-2.05,4.92-4.61,5.69l-19.07,5.71c-.61,.18-1.24,.27-1.86,.27Z"/>
          <path class="cls-3" d="M163.26,54.53c1.91,0,3.62,.35,5.14,1.05,2.93,1.35,4.72,4.16,5.39,8.42,.34,2.17,.42,4.67,.23,7.5-.19,2.83-.55,6.32-1.07,10.47-.33,2.53-.6,4.98-.81,7.35-.22,2.38-.22,4.2-.02,5.48,.24,1.5,.81,2.55,1.72,3.14,.46,.3,1.06,.46,1.78,.46s1.5-.14,2.43-.41c2.59-.77,4.53-2.19,5.83-4.26,1.3-2.07,2.46-5.01,3.48-8.83l5.41-1.6c-1.89,9.15-4.7,15.75-8.43,19.79-3.74,4.06-7.86,6.76-12.36,8.11-2.55,.77-4.83,1.15-6.82,1.15-2.13,0-3.94-.44-5.42-1.32-2.87-1.7-4.59-4.36-5.15-7.97-.25-1.58-.31-3.43-.19-5.55,.12-2.12,.28-4.19,.46-6.22,.18-2.02,.32-3.32,.41-3.9,.28-2.83,.53-5.62,.74-8.35,.21-2.73,.19-4.89-.06-6.46-.49-3.1-1.8-4.65-3.95-4.65-.51,0-1.06,.09-1.66,.26-2.27,.66-4.13,2.2-5.58,4.62-1.45,2.43-2.46,5.34-3.03,8.74l-3.25,38.98-19.07,5.71,5.15-60.92,18.99-5.44-.52,6.29c3.71-5.47,8.49-9.04,14.33-10.72,2.15-.61,4.12-.92,5.91-.92m0-13c-3,0-6.19,.48-9.49,1.42-3.27,.94-6.32,2.26-9.15,3.97-.36-.03-.72-.05-1.08-.05-1.2,0-2.4,.17-3.58,.5l-18.99,5.44c-5.19,1.49-8.92,6.02-9.37,11.4l-5.15,60.92c-.36,4.29,1.42,8.47,4.76,11.19,2.35,1.91,5.25,2.91,8.2,2.91,1.25,0,2.5-.18,3.73-.55l19.07-5.71c5.12-1.53,8.78-6.05,9.23-11.37l.04-.45c.52,.37,1.07,.72,1.63,1.06,3.51,2.08,7.56,3.14,12.05,3.14,3.29,0,6.74-.55,10.55-1.7,6.74-2.02,12.86-5.97,18.19-11.74,5.42-5.87,9.22-14.37,11.61-25.98,.92-4.47-.57-9.1-3.93-12.19-2.43-2.24-5.59-3.43-8.8-3.43-1.23,0-2.46,.17-3.67,.53l-2.04,.6c.18-3.46,.04-6.56-.41-9.46-1.81-11.54-8.79-16.36-12.79-18.21-3.23-1.49-6.79-2.24-10.58-2.24h0Z"/>
        </g>
        <g>
          <path class="cls-1" d="M189.33,107.99c-3.54,0-6.87-.8-9.92-2.39-5.64-2.94-9.16-8.64-10.46-16.96-.99-6.33-.6-13.39,1.16-21.01,1.78-7.7,5.17-14.83,10.08-21.21,5.19-6.74,11.99-11.35,20.21-13.7,2.85-.82,5.3-1.21,7.49-1.21,.51,0,1,.02,1.48,.07,.76-.76,1.72-1.33,2.8-1.65l18.18-5.21c.59-.17,1.19-.25,1.79-.25,1.48,0,2.94,.51,4.11,1.47,1.65,1.35,2.53,3.42,2.37,5.54l-2.92,37.25c.61-1.43,1.07-3.09,1.35-4.97,.38-2.49,2.17-4.54,4.59-5.26l5.25-1.55c.6-.18,1.22-.26,1.84-.26,1.61,0,3.19,.6,4.4,1.72,1.68,1.55,2.42,3.86,1.96,6.1-2.12,10.2-5.6,17.65-10.64,22.8-4.88,4.98-10.23,8.36-15.89,10.06-2.34,.7-4.59,1.06-6.68,1.06-2.44,0-4.73-.47-6.81-1.41-.64-.29-1.32-.65-2.02-1.11-.88,1.09-1.8,2.12-2.75,3.11-3.49,3.59-7.92,6.2-13.14,7.77-2.69,.81-5.33,1.21-7.83,1.21Zm16.78-54.82c-.51,.65-1,1.43-1.47,2.35-1.84,3.58-3.11,7.72-3.78,12.3-.67,4.65-.77,8.56-.29,11.62,.07,.47,.15,.88,.22,1.22,.58-.38,1.21-1.01,1.85-1.84,1.05-1.37,1.64-3.02,1.82-5.05l1.65-20.59Z"/>
          <path class="cls-3" d="M232.14,30.97l-3.16,40.24c-.16,1.21-.14,2.44,.05,3.69,.38,2.4,1.6,3.6,3.66,3.6,.66,0,1.41-.12,2.25-.37,2.35-.7,4.23-2.26,5.64-4.68,1.41-2.42,2.38-5.33,2.89-8.71l5.25-1.55c-1.84,8.85-4.81,15.38-8.92,19.57-4.12,4.2-8.49,7-13.11,8.38-1.74,.52-3.35,.78-4.82,.78s-2.9-.28-4.13-.83c-2.43-1.1-4.12-3.25-5.07-6.46-1.98,3.77-4.33,7.05-7.04,9.84-2.72,2.8-6.17,4.82-10.35,6.07-2.09,.63-4.08,.94-5.97,.94-2.49,0-4.8-.55-6.92-1.65-3.72-1.94-6.07-6.01-7.04-12.21-.87-5.53-.51-11.71,1.07-18.53,1.58-6.82,4.55-13.06,8.9-18.71,4.34-5.64,9.96-9.45,16.85-11.42,2.24-.64,4.14-.96,5.71-.96,.87,0,1.63,.1,2.3,.29,1.85,.55,2.92,1.68,3.18,3.38l.12,.78,.47-6.28,18.18-5.21m-32.49,56.64c.71,0,1.46-.12,2.25-.35,2.12-.63,4.09-2.13,5.9-4.49,1.8-2.36,2.85-5.17,3.13-8.43l2.15-26.88c-.15-.96-.72-1.78-1.71-2.47-.57-.39-1.26-.58-2.08-.58-.62,0-1.31,.11-2.07,.33-3.39,.98-6.18,3.58-8.36,7.82-2.18,4.24-3.66,9.02-4.43,14.34-.77,5.32-.86,9.84-.28,13.56,.58,3.72,1.58,5.92,2.98,6.59,.78,.38,1.62,.57,2.53,.57M232.14,17.97c-1.2,0-2.4,.17-3.58,.5l-18.18,5.21c-1.1,.32-2.13,.77-3.09,1.34-2.64,.06-5.49,.54-8.69,1.46-9.59,2.75-17.52,8.13-23.57,15.99-5.48,7.12-9.27,15.1-11.26,23.71-1.95,8.43-2.37,16.33-1.25,23.48,2.05,13.04,8.68,19.01,13.88,21.72,3.98,2.07,8.33,3.12,12.92,3.12,3.14,0,6.4-.5,9.7-1.49,6.17-1.85,11.43-4.94,15.66-9.18,2.27,.73,4.68,1.1,7.19,1.1,2.73,0,5.61-.45,8.55-1.33,6.73-2.02,13.01-5.96,18.67-11.74,5.94-6.06,9.99-14.57,12.36-26.03,.93-4.47-.56-9.11-3.92-12.2-2.43-2.24-5.59-3.44-8.81-3.44-1.23,0-2.46,.17-3.67,.53l-1.46,.43,1.5-19.17c.33-4.25-1.44-8.39-4.74-11.08-2.35-1.92-5.26-2.93-8.23-2.93h0Z"/>
        </g>
        <g>
          <path class="cls-1" d="M243.99,92.88c-1.47,0-2.91-.5-4.08-1.44-1.67-1.35-2.57-3.43-2.4-5.56l4.6-59.04c.21-2.71,2.08-5,4.69-5.74l17.92-5.13c.59-.17,1.19-.25,1.79-.25,1.06,0,2.11,.26,3.06,.76,2.54-1.99,5.39-3.45,8.49-4.33,1.61-.46,3.18-.69,4.68-.69,2.68,0,5.13,.72,7.28,2.14,3.31,2.19,5.39,5.49,6.03,9.55,.57,3.65-.25,7.37-2.39,10.73-2.17,3.42-5.48,5.79-9.82,7.05-1.46,.42-2.77,.63-4.01,.63-2.73,0-4.59-1.02-5.67-1.88-.62-.5-1.19-1.06-1.71-1.71-.23,.25-.48,.54-.77,.88l-3.22,42.65c-.2,2.68-2.04,4.97-4.62,5.74l-17.99,5.38c-.61,.18-1.24,.27-1.86,.27Z"/>
          <path class="cls-3" d="M282.73,17.94c1.39,0,2.63,.36,3.7,1.06,1.77,1.17,2.83,2.88,3.18,5.13,.33,2.11-.16,4.19-1.46,6.24-1.3,2.05-3.35,3.49-6.14,4.29-.85,.25-1.59,.37-2.2,.37-.69,0-1.23-.16-1.62-.47-.74-.59-1.39-1.56-1.94-2.93-.4-.88-.75-1.5-1.07-1.87-.21-.24-.49-.36-.85-.36-.18,0-.39,.03-.61,.1-1.73,.5-3.15,1.23-4.24,2.2-1.1,.97-2.48,2.49-4.14,4.58l-3.38,44.69-17.99,5.38,4.6-59.04,17.92-5.13-.54,7.27c2.46-3,4.74-5.41,6.82-7.23,2.08-1.82,4.44-3.1,7.07-3.86,1.03-.29,1.99-.44,2.89-.44m0-13c-2.1,0-4.28,.32-6.47,.94-2.79,.8-5.41,1.96-7.84,3.46-.63-.09-1.28-.14-1.92-.14-1.2,0-2.4,.17-3.58,.5l-17.92,5.13c-5.22,1.49-8.96,6.08-9.38,11.49l-4.6,59.04c-.33,4.27,1.46,8.44,4.8,11.13,2.34,1.89,5.23,2.88,8.16,2.88,1.25,0,2.5-.18,3.73-.55l17.99-5.38c5.16-1.54,8.83-6.11,9.23-11.47l2.57-34.08c.75,.1,1.52,.16,2.31,.16,1.86,0,3.77-.29,5.82-.89,5.82-1.69,10.49-5.08,13.49-9.81,3-4.73,4.15-9.99,3.33-15.23-.92-5.83-4.06-10.79-8.85-13.96-3.2-2.11-6.96-3.22-10.88-3.22h0Z"/>
        </g>
      </g>
      <g>
        <g>
          <path class="cls-1" d="M30.3,156.95c-.68,0-1.36-.23-1.9-.68-.77-.63-1.18-1.6-1.09-2.59l7.15-78.51c-1.22,1.1-2.33,2.26-3.34,3.48-5.03,6.11-6.85,13.01-5.58,21.1,.53,3.39,1.17,4.15,1.2,4.18,1.29,1.47,1.83,2.17,1.99,3.15,.24,1.49-.68,2.93-2.13,3.35-3.17,.92-6.01,1.38-8.42,1.38-1.89,0-3.6-.28-5.07-.84-2.62-.99-5.95-3.52-6.96-9.95-.9-5.72,.96-12.02,5.53-18.73,4.31-6.33,10.24-12.19,17.62-17.4,7.32-5.18,14.99-8.91,22.79-11.1,5.53-1.55,10.59-2.34,15.02-2.34,1.63,0,3.21,.11,4.69,.31,8.29,1.17,13.43,2.94,16.16,5.59,2.87,2.79,3.07,6.25,3.24,9.31,.06,1.03,.12,2.09,.28,3.11,.86,5.51-.05,11.42-2.72,17.58-2.63,6.06-6.9,11.68-12.71,16.7-5.51,4.77-12.19,8.41-19.87,10.82l-3.02,33.38c-.11,1.22-.95,2.25-2.13,2.6l-19.87,5.95c-.28,.08-.57,.13-.86,.13Zm28.49-92.93c.16,.08,.31,.17,.46,.28,.84,.62,1.29,1.64,1.2,2.68l-3.19,35.92c2.01-1.34,3.86-3.06,5.54-5.13,2.95-3.64,5.1-7.77,6.4-12.25,1.28-4.44,1.64-8.55,1.06-12.23-.59-3.74-2.11-6.36-4.65-8.01-1.39-.9-3.07-1.33-5.15-1.33-.53,0-1.09,.03-1.67,.09Zm-6.38,1.49c-3.3,1.04-6.32,2.26-9.06,3.66l9.06-3.66Z"/>
          <path class="cls-1" d="M67.1,54.47c1.5,0,2.92,.09,4.27,.28,5.12,.72,11.65,2.03,14.49,4.77,2.83,2.75,2,6.61,2.65,10.73,.78,4.96-.06,10.26-2.51,15.92-2.46,5.66-6.42,10.87-11.92,15.63-5.51,4.77-12.18,8.3-20.02,10.59l-.69,.2-3.2,35.4-19.87,5.95,7.22-79.19,19.95-8.05-3.67,41.29c4.33-1.58,8.11-4.37,11.34-8.36,3.22-3.98,5.53-8.41,6.95-13.31,1.41-4.89,1.79-9.4,1.14-13.53-.72-4.59-2.72-7.95-5.98-10.06-1.87-1.21-4.13-1.82-6.78-1.82-1.98,0-4.18,.34-6.6,1.02-11.16,3.14-19.52,8.07-25.05,14.79-5.55,6.74-7.63,14.57-6.23,23.47,.45,2.86,1.09,4.77,1.91,5.7,.82,.94,1.25,1.48,1.27,1.63-2.91,.84-5.44,1.26-7.59,1.26-1.53,0-2.87-.22-4.01-.65-2.74-1.04-4.42-3.57-5.06-7.61-.78-4.97,.9-10.49,5.04-16.57,4.13-6.06,9.76-11.61,16.87-16.64,7.09-5.01,14.38-8.56,21.87-10.66,5.3-1.48,10.04-2.22,14.21-2.22m0-6c-4.71,0-10.03,.82-15.83,2.45-8.13,2.28-16.11,6.16-23.72,11.54-7.67,5.42-13.84,11.53-18.36,18.16-5.01,7.36-7.03,14.38-6.01,20.88,1.23,7.85,5.5,11.02,8.86,12.29,1.81,.69,3.88,1.03,6.13,1.03,2.74,0,5.77-.49,9.26-1.5,.19-.06,.38-.12,.56-.19l-3.67,40.29c-.18,1.98,.64,3.93,2.18,5.19,1.09,.89,2.43,1.36,3.8,1.36,.58,0,1.15-.08,1.72-.25l19.87-5.95c2.35-.7,4.03-2.77,4.25-5.21l2.84-31.42c7.28-2.52,13.67-6.14,19.02-10.78,6.15-5.33,10.69-11.31,13.5-17.78,2.9-6.69,3.89-13.16,2.93-19.24-.14-.87-.19-1.81-.25-2.81-.19-3.24-.44-7.69-4.15-11.29-3.26-3.16-8.76-5.14-17.83-6.41-1.62-.23-3.34-.34-5.11-.34h0Zm-6.15,46.8l2.47-27.78c.2,.09,.38,.19,.56,.31,1.14,.74,2.72,2.16,3.32,5.96,.51,3.24,.18,6.92-.98,10.94-1.11,3.85-2.91,7.4-5.36,10.58h0Zm-31.92,6.45c-.14-.45-.33-1.22-.52-2.44-.84-5.34-.17-10.09,2.06-14.4l-1.53,16.83h0Z"/>
        </g>
        <g>
          <path class="cls-1" d="M95.16,134.51c-2.45,0-4.72-.51-6.75-1.52-3.91-1.95-6.34-5.76-7.22-11.34-.34-2.16-.38-4.92-.12-8.45l3.39-39.42c.11-1.24,.97-2.28,2.16-2.63l19.29-5.52c.27-.08,.55-.12,.83-.12,.69,0,1.36,.24,1.91,.68,.76,.63,1.17,1.59,1.08,2.57l-3.53,41.54c0,.06-.01,.12-.02,.17-.14,.94-.12,1.92,.03,2.92,.04,.28,.1,.46,.14,.58,.02,0,.05,0,.08,0,.35,0,1.01-.07,2.11-.4,1.97-.59,3.68-1.85,5.23-3.87,1.63-2.13,2.63-4.51,3.07-7.28,.18-1.14,1-2.08,2.11-2.41l5.57-1.64c.28-.08,.56-.12,.85-.12,.75,0,1.48,.28,2.04,.8,.78,.72,1.11,1.8,.89,2.83-2.11,9.7-5.76,17.08-10.86,21.93-5.02,4.77-10.36,8.03-15.88,9.68-2.25,.67-4.41,1.02-6.4,1.02Z"/>
          <path class="cls-1" d="M106.74,68.5l-3.53,41.54c-.18,1.25-.16,2.52,.04,3.81,.24,1.52,.83,2.48,1.78,2.87,.38,.16,.85,.24,1.4,.24,.81,0,1.79-.17,2.96-.52,2.58-.77,4.83-2.41,6.76-4.92,1.92-2.51,3.14-5.39,3.65-8.63l5.57-1.64c-1.99,9.14-5.32,15.94-10,20.39-4.69,4.46-9.58,7.46-14.67,8.98-1.98,.59-3.83,.89-5.54,.89-1.99,0-3.79-.4-5.41-1.21-3.01-1.5-4.87-4.54-5.59-9.12-.3-1.91-.33-4.5-.09-7.76l3.39-39.39,19.29-5.53m0-6c-.55,0-1.11,.08-1.65,.23l-19.29,5.53c-2.39,.69-4.11,2.78-4.33,5.25l-3.39,39.39s0,.05,0,.08c-.28,3.76-.23,6.75,.15,9.13,1.29,8.21,5.52,11.91,8.85,13.56,2.44,1.22,5.16,1.84,8.08,1.84,2.28,0,4.73-.38,7.26-1.14,5.97-1.79,11.72-5.28,17.08-10.38,5.54-5.27,9.49-13.17,11.73-23.47,.45-2.07-.23-4.22-1.78-5.67-1.13-1.05-2.59-1.61-4.09-1.61-.57,0-1.14,.08-1.7,.24l-5.57,1.64c-2.22,.66-3.87,2.53-4.23,4.82-.36,2.26-1.17,4.2-2.49,5.92-.69,.9-1.39,1.59-2.14,2.08l3.48-40.94c.17-1.97-.64-3.89-2.17-5.14-1.09-.89-2.44-1.37-3.81-1.37h0Z"/>
        </g>
        <g>
          <path class="cls-1" d="M115.33,128.18c-.68,0-1.35-.23-1.89-.67-.77-.63-1.18-1.59-1.1-2.58l5.15-60.92c.1-1.24,.97-2.29,2.16-2.63l18.99-5.44c.27-.08,.55-.12,.83-.12,.69,0,1.36,.24,1.9,.68,.24,.19,.44,.42,.6,.67,3.06-2.65,6.57-4.54,10.48-5.66,2.4-.69,4.67-1.04,6.73-1.04,2.34,0,4.49,.44,6.39,1.32,3.88,1.79,6.27,5.38,7.1,10.68,.37,2.38,.46,5.12,.26,8.17-.19,2.86-.55,6.44-1.09,10.65-.32,2.46-.59,4.89-.8,7.25-.24,2.63-.16,4.03-.05,4.74,.1,.64,.26,.94,.35,1.05,.04,0,.1,0,.19,0,.27,0,.77-.05,1.58-.29,1.88-.56,3.24-1.53,4.14-2.97,1.13-1.8,2.18-4.5,3.12-8.01,.27-1.01,1.05-1.81,2.05-2.1l5.41-1.59c.28-.08,.56-.12,.85-.12,.74,0,1.47,.28,2.03,.79,.78,.71,1.12,1.78,.91,2.81-2.02,9.78-5.02,16.72-9.16,21.22-4.1,4.44-8.71,7.45-13.71,8.95-2.82,.84-5.41,1.27-7.68,1.27-2.67,0-5.01-.58-6.95-1.74-3.66-2.17-5.88-5.56-6.59-10.08-.28-1.79-.35-3.87-.22-6.19,.12-2.16,.28-4.28,.47-6.31,.24-2.62,.36-3.56,.42-4.01,.27-2.75,.52-5.51,.73-8.2,.19-2.49,.18-4.43-.03-5.77-.12-.79-.42-2.11-.99-2.11-.15,0-.42,.03-.83,.14-1.53,.44-2.78,1.51-3.84,3.28-1.23,2.07-2.12,4.61-2.62,7.57l-3.24,38.85c-.1,1.23-.95,2.27-2.13,2.62l-19.07,5.71c-.28,.08-.57,.13-.86,.13Z"/>
          <path class="cls-1" d="M159.18,53.47c1.91,0,3.62,.35,5.14,1.05,2.93,1.35,4.72,4.16,5.39,8.42,.34,2.17,.42,4.67,.23,7.5-.19,2.83-.55,6.32-1.07,10.47-.33,2.53-.6,4.98-.81,7.35-.22,2.38-.22,4.2-.02,5.48,.24,1.5,.81,2.55,1.72,3.14,.46,.3,1.06,.46,1.78,.46s1.5-.14,2.43-.41c2.59-.77,4.53-2.19,5.83-4.26,1.3-2.07,2.46-5.01,3.48-8.83l5.41-1.6c-1.89,9.15-4.7,15.75-8.43,19.79-3.74,4.06-7.86,6.76-12.36,8.11-2.55,.77-4.83,1.15-6.82,1.15-2.13,0-3.94-.44-5.42-1.32-2.87-1.7-4.59-4.36-5.15-7.97-.25-1.58-.31-3.43-.19-5.55,.12-2.12,.28-4.19,.46-6.22,.18-2.02,.32-3.32,.41-3.9,.28-2.83,.53-5.62,.74-8.35,.21-2.73,.19-4.89-.06-6.46-.49-3.1-1.8-4.65-3.95-4.65-.51,0-1.06,.09-1.66,.26-2.27,.66-4.13,2.2-5.58,4.62-1.45,2.43-2.46,5.34-3.03,8.74l-3.25,38.98-19.07,5.71,5.15-60.92,18.99-5.44-.52,6.29c3.71-5.47,8.49-9.04,14.33-10.72,2.15-.61,4.12-.92,5.91-.92m0-6c-2.34,0-4.89,.39-7.56,1.15-3.54,1.01-6.77,2.59-9.68,4.73-.78-.35-1.62-.53-2.48-.53-.55,0-1.11,.08-1.65,.23l-18.99,5.44c-2.39,.69-4.12,2.78-4.33,5.26l-5.15,60.92c-.17,1.98,.66,3.91,2.2,5.16,1.08,.88,2.42,1.34,3.78,1.34,.58,0,1.15-.08,1.72-.25l19.07-5.71c2.36-.71,4.05-2.79,4.26-5.25l3.23-38.72c.45-2.54,1.19-4.7,2.22-6.42,.08-.14,.16-.27,.24-.39,0,.78-.03,1.79-.12,3.08-.2,2.63-.44,5.34-.71,8.05-.08,.55-.21,1.58-.44,4.11-.19,2.06-.35,4.22-.48,6.41-.15,2.53-.06,4.83,.25,6.83,.84,5.37,3.62,9.59,8.02,12.2,2.41,1.43,5.27,2.16,8.48,2.16,2.6,0,5.39-.46,8.54-1.4,5.52-1.65,10.58-4.95,15.05-9.78,4.53-4.91,7.77-12.32,9.9-22.65,.43-2.06-.26-4.2-1.81-5.63-1.12-1.03-2.58-1.58-4.06-1.58-.57,0-1.14,.08-1.7,.24l-5.41,1.6c-2.01,.59-3.56,2.19-4.1,4.21-1.07,4.01-2.09,6.12-2.76,7.18-.17,.28-.41,.59-.8,.89,.02-.45,.06-.96,.11-1.55,.21-2.32,.47-4.71,.79-7.12,.55-4.35,.91-7.89,1.11-10.85,.22-3.27,.12-6.24-.29-8.83-1.24-7.91-5.47-11.4-8.81-12.94-2.3-1.06-4.87-1.6-7.65-1.6h0Z"/>
        </g>
        <g>
          <path class="cls-1" d="M185.25,103.43c-2.97,0-5.76-.67-8.3-1.99-4.6-2.4-7.5-7.24-8.62-14.4-.92-5.88-.55-12.5,1.11-19.68,1.67-7.2,4.84-13.88,9.44-19.86,4.72-6.13,10.91-10.33,18.4-12.47,2.53-.72,4.67-1.08,6.53-1.08,1.15,0,2.21,.14,3.15,.42,0,0,.01,0,.02,0,.26-1.02,1.04-1.84,2.08-2.14l18.18-5.21c.27-.08,.55-.12,.83-.12,.68,0,1.36,.23,1.9,.68,.76,.62,1.17,1.58,1.09,2.56l-3.16,40.24c0,.06-.01,.11-.02,.17-.12,.91-.11,1.86,.04,2.83,.12,.78,.32,1.01,.34,1.03h0s.11,.04,.35,.04,.71-.04,1.4-.25c1.6-.48,2.88-1.56,3.9-3.32,1.22-2.09,2.06-4.66,2.52-7.65,.18-1.15,1-2.1,2.12-2.43l5.25-1.55c.28-.08,.56-.12,.85-.12,.74,0,1.47,.28,2.03,.79,.78,.71,1.12,1.78,.9,2.82-1.95,9.39-5.22,16.47-9.71,21.06-4.46,4.55-9.3,7.63-14.4,9.16-2.01,.6-3.92,.91-5.68,.91-1.94,0-3.75-.37-5.36-1.1-1.57-.71-2.91-1.73-4.01-3.06-1.44,2.11-3.01,4.05-4.71,5.8-3.07,3.16-6.99,5.46-11.64,6.85-2.36,.71-4.66,1.07-6.83,1.07Zm19.96-57.09c-.23,0-.63,.04-1.24,.21-2.59,.75-4.72,2.81-6.52,6.31-2.02,3.92-3.41,8.43-4.13,13.4-.72,5-.82,9.26-.28,12.66,.58,3.67,1.39,4.4,1.4,4.4,.29,.13,.69,.22,1.14,.22h0c.42,0,.89-.08,1.4-.23,1.5-.44,2.96-1.6,4.37-3.44,1.46-1.91,2.29-4.16,2.53-6.87l2.1-26.29c-.08-.1-.21-.22-.38-.33-.01,0-.13-.05-.38-.05Z"/>
          <path class="cls-1" d="M228.06,29.91l-3.16,40.24c-.16,1.21-.14,2.44,.05,3.69,.38,2.4,1.6,3.6,3.66,3.6,.66,0,1.41-.12,2.25-.37,2.35-.7,4.23-2.26,5.64-4.68,1.41-2.42,2.38-5.33,2.89-8.71l5.25-1.55c-1.84,8.85-4.81,15.38-8.92,19.57-4.12,4.2-8.49,7-13.11,8.38-1.74,.52-3.35,.78-4.82,.78s-2.9-.28-4.13-.83c-2.43-1.1-4.12-3.25-5.07-6.46-1.98,3.77-4.33,7.05-7.04,9.84-2.72,2.8-6.17,4.82-10.35,6.07-2.09,.63-4.08,.94-5.97,.94-2.49,0-4.8-.55-6.92-1.65-3.72-1.94-6.07-6.01-7.04-12.21-.87-5.53-.51-11.71,1.07-18.53,1.58-6.82,4.55-13.06,8.9-18.71,4.34-5.64,9.96-9.45,16.85-11.42,2.24-.64,4.14-.96,5.71-.96,.87,0,1.63,.1,2.3,.29,1.85,.55,2.92,1.68,3.18,3.38l.12,.78,.47-6.28,18.18-5.21m-32.49,56.64c.71,0,1.46-.12,2.25-.35,2.12-.63,4.09-2.13,5.9-4.49,1.8-2.36,2.85-5.17,3.13-8.43l2.15-26.88c-.15-.96-.72-1.78-1.71-2.47-.57-.39-1.26-.58-2.08-.58-.62,0-1.31,.11-2.07,.33-3.39,.98-6.18,3.58-8.36,7.82-2.18,4.24-3.66,9.02-4.43,14.34-.77,5.32-.86,9.84-.28,13.56,.58,3.72,1.58,5.92,2.98,6.59,.78,.38,1.62,.57,2.53,.57m32.49-62.64c-.55,0-1.11,.08-1.65,.23l-18.18,5.21c-1.08,.31-2.02,.9-2.74,1.69-.54-.06-1.1-.09-1.67-.09-2.15,0-4.56,.39-7.36,1.19-8.12,2.33-14.83,6.88-19.95,13.53-4.86,6.32-8.22,13.39-9.99,21.02-1.75,7.55-2.14,14.56-1.15,20.82,1.28,8.16,4.71,13.74,10.2,16.6,2.97,1.55,6.23,2.33,9.69,2.33,2.46,0,5.04-.4,7.69-1.19,5.15-1.54,9.5-4.11,12.93-7.64,1.05-1.08,2.05-2.23,3.01-3.44,.81,.57,1.6,1,2.33,1.33,2.01,.91,4.23,1.37,6.6,1.37,2.05,0,4.25-.35,6.54-1.03,5.58-1.67,10.86-5.01,15.68-9.93,4.97-5.07,8.41-12.45,10.51-22.55,.43-2.07-.26-4.2-1.81-5.63-1.12-1.03-2.58-1.59-4.07-1.59-.57,0-1.14,.08-1.7,.24l-5.25,1.55c-2.23,.66-3.88,2.55-4.24,4.85-.4,2.62-1.12,4.84-2.15,6.59-.13,.22-.26,.42-.39,.59l3.1-39.59c.15-1.96-.66-3.87-2.19-5.12-1.08-.89-2.43-1.35-3.8-1.35h0Zm-31.68,56.44c-.12-.46-.26-1.07-.38-1.89-.49-3.11-.39-7.07,.29-11.77,.67-4.64,1.96-8.83,3.83-12.45,.78-1.52,1.63-2.7,2.53-3.53l-1.77,22.09c-.18,2.08-.81,3.82-1.92,5.26-.9,1.17-1.78,1.96-2.58,2.29h0Z"/>
        </g>
        <g>
          <path class="cls-1" d="M239.9,88.32c-.68,0-1.34-.23-1.88-.67-.77-.62-1.18-1.58-1.11-2.57l4.6-59.04c.1-1.25,.96-2.31,2.16-2.65l17.92-5.13c.27-.08,.55-.12,.83-.12,.68,0,1.35,.23,1.89,.67,.46,.38,.79,.87,.97,1.42,.49-.47,.97-.91,1.44-1.32,2.41-2.1,5.17-3.61,8.21-4.48,1.29-.37,2.54-.56,3.71-.56,1.98,0,3.78,.52,5.35,1.56,2.46,1.63,4.01,4.11,4.49,7.17,.45,2.84-.19,5.64-1.89,8.32-1.7,2.68-4.34,4.55-7.84,5.57-1.14,.33-2.13,.49-3.04,.49-1.38,0-2.55-.38-3.48-1.12-1.15-.92-2.07-2.25-2.83-4.09-.01-.02-.02-.04-.03-.06-.8,.33-1.47,.73-2.01,1.2-.84,.74-1.91,1.91-3.2,3.48l-3.31,43.76c-.09,1.24-.94,2.29-2.13,2.65l-17.99,5.38c-.28,.08-.57,.13-.86,.13Z"/>
          <path class="cls-1" d="M278.65,16.88c1.39,0,2.63,.36,3.7,1.06,1.77,1.17,2.83,2.88,3.18,5.13,.33,2.11-.16,4.19-1.46,6.24-1.3,2.05-3.35,3.49-6.14,4.29-.85,.25-1.59,.37-2.2,.37-.69,0-1.23-.16-1.62-.47-.74-.59-1.39-1.56-1.94-2.93-.4-.88-.75-1.5-1.07-1.87-.21-.24-.49-.36-.85-.36-.18,0-.39,.03-.61,.1-1.73,.5-3.15,1.23-4.24,2.2-1.1,.97-2.48,2.49-4.14,4.58l-3.38,44.69-17.99,5.38,4.6-59.04,17.92-5.13-.54,7.27c2.46-3,4.74-5.41,6.82-7.23,2.08-1.82,4.44-3.1,7.07-3.86,1.03-.29,1.99-.44,2.89-.44m0-6c-1.45,0-2.98,.23-4.54,.67-3.15,.9-6.03,2.4-8.59,4.46-.94-.57-2.02-.87-3.1-.87-.55,0-1.11,.08-1.65,.23l-17.92,5.13c-2.41,.69-4.13,2.8-4.33,5.3l-4.6,59.04c-.15,1.97,.67,3.89,2.21,5.14,1.08,.87,2.41,1.33,3.77,1.33,.58,0,1.15-.08,1.72-.25l17.99-5.38c2.38-.71,4.07-2.82,4.26-5.3l3.23-42.81c.51-.6,.93-1.08,1.29-1.45,.59,.81,1.25,1.51,1.98,2.09,1.02,.81,2.77,1.77,5.36,1.77,1.19,0,2.46-.2,3.87-.61,4.22-1.22,7.43-3.53,9.53-6.84,2.07-3.26,2.87-6.86,2.32-10.39-.62-3.92-2.62-7.11-5.8-9.21-2.08-1.37-4.43-2.06-7.01-2.06h0Z"/>
        </g>
      </g>
      <g>
        <path class="cls-2" d="M30.7,73.18l19.95-8.05-3.67,41.29c4.33-1.58,8.11-4.37,11.34-8.36,3.22-3.98,5.53-8.41,6.95-13.31,1.41-4.89,1.79-9.4,1.14-13.53-.72-4.59-2.72-7.95-5.98-10.06-3.27-2.12-7.73-2.39-13.38-.8-11.16,3.14-19.52,8.07-25.05,14.79-5.55,6.74-7.63,14.57-6.23,23.47,.45,2.86,1.09,4.77,1.91,5.7,.82,.94,1.25,1.48,1.27,1.63-5,1.45-8.87,1.65-11.6,.62-2.74-1.04-4.42-3.57-5.06-7.61-.78-4.97,.9-10.49,5.04-16.57,4.13-6.06,9.76-11.61,16.87-16.64,7.09-5.01,14.38-8.56,21.87-10.66,7.2-2.02,13.35-2.66,18.48-1.94,5.12,.72,9.09,2.45,11.92,5.2,2.83,2.75,4.57,6.18,5.21,10.3,.78,4.96-.06,10.26-2.51,15.92-2.46,5.66-6.42,10.87-11.92,15.63-5.51,4.77-12.18,8.3-20.02,10.59l-.69,.2-3.2,35.4-16.63,4.98c-1.55,.46-3.08-.79-2.93-2.4l6.91-75.82Z"/>
        <g>
          <path class="cls-3" d="M90.57,131.36c-2.14,0-4.11-.44-5.85-1.31-3.3-1.64-5.37-4.96-6.14-9.86-.31-1.97-.34-4.66-.1-7.99l3.45-40.08,21.34-6.12-3.65,42.98c-.17,1.2-.16,2.38,.03,3.57,.18,1.15,.58,1.86,1.18,2.1,.26,.11,.6,.16,1.01,.16,.71,0,1.61-.16,2.68-.48,2.36-.7,4.46-2.24,6.25-4.57,1.81-2.37,2.97-5.12,3.46-8.18l.1-.62,7.79-2.3-.36,1.65c-2.02,9.3-5.48,16.34-10.29,20.91-4.79,4.55-9.86,7.65-15.07,9.21-2.07,.62-4.03,.93-5.83,.93Zm2.95-65.41c-1.12-.04-1.21-1.17-1.3-2.47-.12-1.7-.33-4.54-2.04-6.03-1.34-1.17-3.37-1.31-4.78-1.31-.33,0-.63,0-.91,.01-.24,0-.45,.01-.64,.01-.45,0-1.63,0-1.76-1.06-.13-1.1,.98-1.35,2.16-1.61,1.72-.38,4.61-1.02,6.32-3.13,1.26-1.55,1.58-3.51,1.79-4.81,.18-1.08,.36-2.2,1.46-2.2,1.13,.01,1.29,1.15,1.44,2.26,.19,1.35,.47,3.4,1.8,4.65,1.35,1.27,3.48,1.41,4.97,1.41,.37,0,.72,0,1.03-.02,.26,0,.5-.01,.71-.01,.44,0,1.62,0,1.76,1.05,.15,1.1-.94,1.35-2.08,1.62-1.55,.36-4.15,.96-5.92,2.82-1.87,1.97-2.28,4.8-2.53,6.5-.18,1.25-.34,2.33-1.42,2.33h-.04Z"/>
          <path class="cls-1" d="M93.81,44.36h0c.7,0,.05,4.3,2.55,6.64,1.58,1.48,3.89,1.68,5.65,1.68,.69,0,1.3-.03,1.74-.03,.47,0,.75,.04,.77,.18,.08,.6-4.77,.49-7.73,3.62-3.13,3.3-2.57,8.51-3.23,8.51,0,0,0,0,0,0-.69-.03,.3-5.62-2.72-8.26-1.57-1.37-3.78-1.56-5.44-1.56-.61,0-1.15,.02-1.55,.02-.46,0-.75-.03-.77-.18-.08-.63,5.41-.48,8.27-3.99,2.28-2.81,1.81-6.64,2.47-6.64m8.34,23l-3.53,41.54c-.18,1.25-.17,2.52,.04,3.81,.24,1.52,.83,2.48,1.78,2.87,.38,.16,.85,.24,1.4,.24,.81,0,1.79-.17,2.96-.52,2.58-.77,4.83-2.41,6.76-4.92,1.92-2.51,3.14-5.39,3.65-8.63l5.57-1.64c-1.99,9.14-5.32,15.94-10,20.39-4.69,4.46-9.58,7.46-14.67,8.98-1.98,.59-3.83,.89-5.54,.89-1.99,0-3.79-.4-5.41-1.21-3.01-1.5-4.87-4.54-5.59-9.12-.3-1.91-.33-4.5-.09-7.76l3.39-39.39,19.29-5.53m-8.34-25c-1.95,0-2.27,1.98-2.44,3.04-.21,1.26-.49,3-1.58,4.34-1.5,1.84-4.17,2.43-5.77,2.79-1.19,.26-3.18,.7-2.93,2.71,.09,.72,.56,1.93,2.75,1.93,.19,0,.42,0,.66-.01,.27,0,.56-.01,.88-.01,1.25,0,3.03,.11,4.12,1.06,1.4,1.23,1.59,3.81,1.7,5.35,.09,1.24,.24,3.32,2.26,3.4h.04s.04,0,.04,0c1.95,0,2.23-1.91,2.41-3.18,.23-1.58,.62-4.21,2.27-5.95,1.56-1.65,3.97-2.2,5.42-2.54,1.09-.25,3.12-.72,2.85-2.72-.1-.71-.58-1.91-2.75-1.91-.21,0-.46,0-.74,.01-.3,0-.64,.02-1,.02-1.31,0-3.18-.12-4.28-1.14-1.08-1.01-1.32-2.77-1.49-4.05-.15-1.08-.42-3.1-2.4-3.12h-.01s-.01,0-.01,0h0Zm10.58,22.27l-2.79,.8-19.29,5.53-1.32,.38-.12,1.37-3.39,39.39c-.25,3.48-.22,6.17,.11,8.25,.82,5.24,3.07,8.8,6.68,10.6,1.89,.94,4.01,1.42,6.3,1.42,1.9,0,3.95-.33,6.11-.98,5.36-1.61,10.57-4.79,15.47-9.45,4.95-4.71,8.51-11.91,10.58-21.42l.72-3.3-3.24,.95-5.57,1.64-1.21,.36-.2,1.25c-.46,2.9-1.56,5.5-3.26,7.73-1.68,2.19-3.55,3.57-5.74,4.22-.98,.29-1.78,.44-2.39,.44-.38,0-.56-.06-.63-.09-.24-.1-.46-.61-.58-1.34-.17-1.09-.18-2.17-.03-3.21v-.06s.01-.06,.01-.06l3.53-41.54,.25-2.89h0Z"/>
        </g>
        <path class="cls-2" d="M145.62,108.71c-2.87-1.7-4.59-4.36-5.15-7.97-.25-1.58-.31-3.43-.19-5.55,.12-2.12,.28-4.19,.46-6.22,.18-2.02,.32-3.32,.41-3.9,.28-2.83,.53-5.62,.74-8.35,.21-2.73,.19-4.89-.06-6.46-.6-3.83-2.47-5.29-5.61-4.39-2.27,.66-4.13,2.2-5.58,4.62-1.45,2.43-2.46,5.34-3.03,8.74l-3.25,38.98-19.07,5.71,5.15-60.92,18.99-5.44-.52,6.29c3.71-5.47,8.49-9.04,14.33-10.72,4.43-1.27,8.11-1.23,11.04,.12,2.93,1.35,4.72,4.16,5.39,8.42,.34,2.17,.42,4.67,.23,7.5-.19,2.83-.55,6.32-1.07,10.47-.33,2.53-.6,4.98-.81,7.35-.22,2.38-.22,4.2-.02,5.48,.24,1.5,.81,2.55,1.72,3.14,.91,.59,2.31,.61,4.21,.04,2.59-.77,4.53-2.19,5.83-4.26,1.3-2.07,2.46-5.01,3.48-8.83l5.41-1.6c-1.89,9.15-4.7,15.75-8.43,19.79-3.74,4.06-7.86,6.76-12.36,8.11-5.29,1.59-9.37,1.53-12.24-.17Z"/>
        <path class="cls-2" d="M172.73,97.65c-3.72-1.94-6.07-6.01-7.04-12.21-.87-5.53-.51-11.71,1.07-18.53,1.58-6.82,4.55-13.06,8.9-18.71,4.34-5.64,9.96-9.45,16.85-11.42,3.48-1,6.14-1.22,8-.67,1.85,.55,2.92,1.68,3.18,3.38l.12,.78,.47-6.28,18.18-5.21-3.16,40.24c-.16,1.21-.14,2.44,.05,3.69,.5,3.17,2.47,4.25,5.91,3.23,2.35-.7,4.23-2.26,5.64-4.68,1.41-2.42,2.38-5.33,2.89-8.71l5.25-1.55c-1.84,8.85-4.81,15.38-8.92,19.57-4.12,4.2-8.49,7-13.11,8.38-3.54,1.06-6.52,1.04-8.95-.05-2.43-1.1-4.12-3.25-5.07-6.46-1.98,3.77-4.33,7.05-7.04,9.84-2.72,2.8-6.17,4.82-10.35,6.07-4.87,1.46-9.17,1.22-12.88-.71Zm25.39-17.07c1.8-2.36,2.85-5.17,3.13-8.43l2.15-26.88c-.15-.96-.72-1.78-1.71-2.47-.99-.68-2.38-.77-4.16-.25-3.39,.98-6.18,3.58-8.36,7.82-2.18,4.24-3.66,9.02-4.43,14.34-.77,5.32-.86,9.84-.28,13.56s1.58,5.92,2.98,6.59c1.4,.68,2.99,.75,4.78,.21,2.12-.63,4.09-2.13,5.9-4.49Z"/>
        <path class="cls-2" d="M230.95,24.69l17.92-5.13-.54,7.27c2.46-3,4.74-5.41,6.82-7.23,2.08-1.82,4.44-3.1,7.07-3.86s4.82-.54,6.59,.62c1.77,1.17,2.83,2.88,3.18,5.13,.33,2.11-.16,4.19-1.46,6.24-1.3,2.05-3.35,3.49-6.14,4.29-1.81,.52-3.08,.49-3.82-.09s-1.39-1.56-1.94-2.93c-.4-.88-.75-1.5-1.07-1.87-.32-.37-.8-.46-1.46-.26-1.73,.5-3.15,1.23-4.24,2.2-1.1,.97-2.48,2.49-4.14,4.58l-3.38,44.69-17.99,5.38,4.6-59.04Z"/>
      </g>
    </g>
    <g>
      <path class="cls-1" d="M288.2,107.49c2.61-2.48,5.52-4.52,7.67-7.39,3.24-4.31,5-9.18,5.32-14.51,.41-6.83,1.67-13.44,4.19-19.82-3.21,4.77-5.33,10.04-5.93,15.7-2.33,21.85-19.79,31.9-38.02,33.29-9.3,.71-18.5-.82-27.73-1.51-8.62-.65-16.91,.51-24.76,4.31-2.38,1.15-4.43,2.8-6.8,3.99,2.53-3.12,5.87-5.14,9.36-7,8.5-4.53,17.71-4.19,26.89-3.79,9.96,.44,19.9,1.03,29.77-1.02,3.72-.77,7.13-2.23,10.28-4.35,2.04-1.37,2.78-3,2.22-5.52-1.96-8.78-1.71-17.49,1.97-25.82,4.55-10.28,12.89-16.47,23.08-20.4,7.3-2.82,14.85-4.57,22.77-4.61,0,.93-.77,.88-1.21,1.08-7.75,3.35-11.64,9.42-12.42,17.65-.34,3.63-.41,7.29-.89,10.9-1.98,15.02-13.07,25.36-25.74,28.82Z"/>
      <path class="cls-1" d="M213.37,121.7c7.78-5.32,16.5-6.1,25.48-5.2,6.31,.63,12.36,2.49,18.3,4.63,5.66,2.04,10.1,5.62,13.32,10.74,2.17,3.45,5.01,6.3,8.43,8.6-3.87-3.89-6.56-8.59-9.51-13.14-2.99-4.6-7.64-6.9-12.87-8.28,6.17-1.09,11.87,.05,17.16,3.22,4.53,2.71,7.92,6.56,10.15,11.28,3.25,6.89,7.99,11.42,16.08,11.33,.13,0,.27,.22,.63,.54-11.55,4.2-22.98,6.55-34.39,.38-7.26-3.93-11.34-10.52-13.37-18.34-.6-2.31-1.58-3.76-3.76-4.81-11.47-5.55-23.03-6.38-34.81-1.1-.25,.11-.55,.1-.83,.15Z"/>
    </g>
  </g>
</svg>